<?xml version="1.0" encoding="utf-8"?>
<!-- Generator: Adobe Illustrator 14.0.0, SVG Export Plug-In . SVG Version: 6.00 Build 43363)  -->
<!DOCTYPE svg PUBLIC "-//W3C//DTD SVG 1.1//EN" "http://www.w3.org/Graphics/SVG/1.1/DTD/svg11.dtd">
<svg version="1.1" id="Layer_1" xmlns="http://www.w3.org/2000/svg" xmlns:xlink="http://www.w3.org/1999/xlink" x="0px" y="0px"
	 width="670.317px" height="161px" viewBox="0 0 670.317 161" enable-background="new 0 0 670.317 161" xml:space="preserve">
<path fill="none" stroke="#ffffff" d="M461.534,118.64c0,0-0.53-3.001,1.743-2.729c2.272,0.276,1.572-0.543,2.921-1.481
	c1.35-0.941,3.945-1.546,4.561,0.365c0.613,1.913,0.081,2.214,0.813,2.671c0.73,0.453,2.145,1.912,2.554-0.061
	c0.41-1.972-1.788-1.941,0.51-3.246c2.934-1.665,5.208-1.392,5.643-0.417c0.432,0.969-1.352,0.939,0.066,2.393
	c1.415,1.459-0.353,1.244,1.415,1.459c1.773,0.212,1.379-1.305,2.673-1.516c1.29-0.21,2.578,2.883,2.578,2.883
	s2.059-1.232,3.849,0.065c1.79,1.293,0.496,3.341,0.486,4.625c-0.008,1.284,1.537,0.779,2.563,0.786
	c1.028,0.006,2.067-2.041,3.858-1.005c1.794,1.038,4.099,2.08,4.087,3.621c-0.007,1.543-0.277,3.338,1.009,3.343
	c1.284,0.01,4.373-1,5.141-0.481s2.042,2.066,2.042,2.066l4.085-0.406c0,0,2.731,1.042,2.722,2.412
	c-0.005,1.369,2.73,2.07,2.73,2.07l2.729,1.729"/>
<g>
	<path fill="none" stroke="#ffffff" d="M321.612,95.267c-43.936,2.59-68.676,9.032-68.676,9.032"/>
	<path fill="none" stroke="#ffffff" d="M413.079,95.356"/>
	<path fill="none" stroke="#ffffff" stroke-width="1.5" d="M318.788,123.941c-37.548-13.867-63.139-18.967-100.058-21.467
		c-34.062-2.308-67.975,5.623-67.975,5.623"/>
	<path fill="none" stroke="#ffffff" d="M300.984,123.499c0,0-16.557-1.628-28.499,0.271"/>
	<g>
		<path fill="none" stroke="#ffffff" d="M254.456,97.058c0,0-14.38-2.536-20.585-2.536"/>
		<line fill="none" stroke="#ffffff" x1="274.476" y1="75.346" x2="267.424" y2="75.346"/>
		<line fill="none" stroke="#ffffff" x1="235" y1="42.64" x2="216.953" y2="68.016"/>
		<line fill="none" stroke="#ffffff" stroke-width="1.5" x1="225.412" y1="73.09" x2="228.457" y2="102.71"/>
		<polyline fill="none" stroke="#ffffff" stroke-width="1.5" points="242.895,46.022 264.323,69.709 261.384,102.492 		"/>
		<polygon fill="none" stroke="#ffffff" stroke-width="1.5" points="275.6,74.784 245.15,39.82 218.645,75.913 218.645,70.833 
			245.15,34.745 275.6,70.833 		"/>
		<path fill="none" stroke="#ffffff" stroke-width="1.5" d="M193.751,52.798c-1.974,0.558-4.015,1.121-6.119,1.684
			c-1.725,0.46-14.664,22.556-14.664,22.556l37.22-4.511"/>
		<path fill="none" stroke="#ffffff" stroke-width="1.5" d="M240.076,35.872c0,0-9.242,5.013-28.771,11.531"/>
		<line fill="none" stroke="#ffffff" stroke-width="1.5" x1="180.52" y1="102.458" x2="177.48" y2="80.986"/>
		<path fill="none" stroke="#ffffff" d="M207.933,40.103c0,0,0.844,9.587,0.844,12.406l-4.792,4.511h-8.458l-1.691-14.661
			l9.022-0.285L207.933,40.103z"/>
		<line fill="none" stroke="#ffffff" x1="203.139" y1="44.331" x2="204.266" y2="55.893"/>
		<line fill="none" stroke="#ffffff" x1="205.113" y1="39.82" x2="197.498" y2="40.665"/>
		<path fill="none" stroke="#ffffff" d="M218.73,102.474c0,0-2.052-19.916-2.334-21.893c0,0-12.592,1.854-12.693,0.969
			c1.311,11.551,1.691,13.827,1.311,18.759"/>
		<polygon fill="none" stroke="#ffffff" points="242.809,71.768 242.815,81.568 236.698,81.207 236.3,71.418 		"/>
		<polygon fill="none" stroke="#ffffff" points="245.459,81.753 251.488,82.428 251.89,72.914 245.355,71.956 		"/>
		<polygon fill="none" stroke="#ffffff" points="251.29,85.882 245.352,85.049 245.399,93.473 250.846,94.324 		"/>
		<polygon fill="none" stroke="#ffffff" points="242.749,84.787 237.023,84.409 237.365,92.817 242.896,93.359 		"/>
		<polygon fill="none" stroke="#ffffff" points="189.333,82.373 190.168,89.93 184.603,90.332 183.414,82.83 		"/>
		<polygon fill="none" stroke="#ffffff" points="192.575,89.493 198.087,89.34 197.644,81.961 191.652,81.95 		"/>
		<polygon fill="none" stroke="#ffffff" points="198.201,92.028 192.759,92.049 193.515,98.534 198.514,98.583 		"/>
		<polygon fill="none" stroke="#ffffff" points="190.38,92.421 185.169,92.766 186.191,99.212 191.243,99.009 		"/>
		<line fill="none" stroke="#ffffff" x1="227.952" y1="45.745" x2="212.726" y2="67.452"/>
		<line fill="none" stroke="#ffffff" x1="221.187" y1="49.689" x2="209.625" y2="66.323"/>
		<line fill="none" stroke="#ffffff" x1="215.263" y1="52.789" x2="207.084" y2="64.067"/>
		<line fill="none" stroke="#ffffff" x1="189.041" y1="58.149" x2="178.891" y2="73.372"/>
		<line fill="none" stroke="#ffffff" x1="189.322" y1="64.067" x2="183.965" y2="72.245"/>
		<path fill="none" stroke="#ffffff" d="M254.456,70.556c0,0-14.38-2.54-20.585-2.54"/>
		<path fill="none" stroke="#ffffff" d="M253.89,68.57c-14.465-2.552-14.176-2.536-20.582-2.536"/>
		<path fill="none" stroke="#ffffff" d="M256.438,99.043c0,0-14.379-2.538-20.58-2.538"/>
		<polyline fill="none" stroke="#ffffff" points="216.391,101.006 214.417,83.242 207.291,84.754 208.429,100.688 		"/>
		<path fill="none" stroke="#ffffff" stroke-width="1.5" d="M215.887,104.089c0,0-5.426,1.358-5.97,3.256
			c-0.541,1.898,5.157,4.615,17.372,7.601c12.213,2.983,16.558,6.514,18.456,7.87"/>
		<path fill="none" stroke="#ffffff" stroke-width="1.5" d="M207.475,104.089c0,0-14.93,1.901-15.2,5.7
			c-0.271,3.799,6.243,8.414,5.7,10.585c-0.542,2.171-1.358,5.97-19,6.515"/>
		<path fill="none" stroke="#ffffff" d="M187.119,120.917c0,0-10.585-4.614-26.601-4.072"/>
		<polyline fill="none" stroke="#ffffff" points="167.578,103.275 170.832,97.576 170.291,92.146 170.832,86.719 170.291,79.661 
			170.019,73.417 170.019,70.704 167.305,60.39 162.146,52.247 167.305,57.406 168.934,50.075 168.39,59.845 170.832,68.261 
			174.089,63.104 173.004,57.406 171.374,50.348 170.832,46.818 167.033,34.878 172.189,46.548 174.089,39.492 172.462,50.075 
			175.719,60.12 179.52,49.26 177.618,59.576 174.633,67.176 174.633,71.52 		"/>
		<polyline fill="none" stroke="#ffffff" points="175.447,78.847 175.988,83.731 175.719,88.89 176.533,93.503 178.703,99.477 		"/>
		<path fill="none" stroke="#ffffff" d="M177.346,102.733c-1.358-1.9-2.713-1.358-2.713-1.358l-2.712,2.169"/>
		<path fill="none" stroke="#ffffff" d="M192.275,51.976c0,0,1.086-3.527-2.987-4.072c-4.069-0.543,4.613-3.798-3.256-5.698
			c-7.87-1.902-5.158-2.443-6.785,0.542c-1.629,2.985-7.874,3.256-5.429,6.512"/>
		<path fill="none" stroke="#ffffff" d="M178.703,38.675c0,0,2.172-5.426-2.715-5.698c-4.885-0.272-5.426-9.771-7.055-5.43
			c-1.629,4.343-5.431-5.97-7.872-1.085c-2.442,4.884-4.342,2.714-3.258,7.601c1.085,4.885,1.627,0.815,1.627,0.815
			s-5.155,0-4.612,4.614c0.544,4.613,3.53,5.426,3.53,5.426s-3.802,1.9-2.716,4.617c1.086,2.711,5.428,1.358,5.428,1.358
			s-6.514,2.438-4.342,5.155c2.169,2.713,7.057,1.898,7.057,1.898"/>
		<path fill="none" stroke="#ffffff" d="M195.262,39.492c0,0,4.341-4.345-0.815-6.243c-5.159-1.902-2.172-0.272-2.172-0.272
			s4.342-5.7-2.443-6.246c-6.785-0.541-1.356-2.167-1.356-2.167s-0.546-6.245-3.257-4.887c-2.714,1.357-6.244-0.272-5.972,3.257
			c0.272,3.529-1.356,1.899-1.356,1.899s-0.545-7.871-3.258-4.884c-2.712,2.985-1.629,0.542-1.629,0.542s-4.884-2.988-5.971,0.269
			c-1.085,3.26,0,4.347,0,4.347s-5.157-3.257-5.427-1.9"/>
		<path fill="none" stroke="#ffffff" d="M180.875,61.748c-2.443,2.17-2.983-0.545-2.983-0.545"/>
		<path fill="none" stroke="#ffffff" d="M231.36,115.488c0,0,0-1.083,0-2.169c0-1.087,3.256,0.541,4.072,1.628
			c0.814,1.085,0.541-1.628,1.358-2.985c0.813-1.358,2.983-0.273,3.799,1.627c0.814,1.899,0-3.528,2.172-3.528
			c2.17,0,1.898,2.171,3.527,2.714c1.629,0.544-1.357,3.257-1.357,3.257s2.443-2.443,3.801-1.085
			c1.357,1.356,1.899,0.542,2.713,2.442c0.815,1.899-1.356,2.715-1.356,2.715h-4.344"/>
		<path fill="none" stroke="#ffffff" d="M273.911,68.304c0,0,1.9,0.543,2.986,0c1.087-0.542,4.343,4.615,4.343,4.615
			s0.541,3.526,2.171,3.526c1.627,0,1.086-1.356,3.528-1.084c2.443,0.269,0.813,2.168,2.443,4.342
			c1.627,2.172-2.713,3.528-1.084,3.528c1.627,0,1.627-1.356,2.17-2.443c0.541-1.085,0.541-1.9,4.34-1.085
			c3.802,0.813,1.901,2.712,2.446,4.342c0.542,1.629-0.273,5.428-0.273,5.428s1.356-3.256,4.615-0.542
			c3.257,2.714-1.086,5.429-1.086,5.429s5.714-0.531,5.714,2.287"/>
		<path fill="none" stroke="#ffffff" d="M289.977,98.594c0,0,1.098-5.591-1.348-5.591c-2.443,0-1.63-1.085-2.986-2.714
			c-1.357-1.629-4.073-2.986-4.886-0.272c-0.814,2.713-0.269,3.257-1.085,3.8c-0.813,0.542-2.443,2.444-2.714-0.543
			c-0.271-2.984,2.064-2.553-0.271-4.885c-2.987-2.986-5.429-2.986-5.974-1.629c-0.541,1.357,1.359,1.629-0.269,3.53
			c-1.628,1.901,0.269,1.901-1.628,1.901c-1.9,0-1.358-2.173-2.714-2.717c-1.358-0.542-2.987,3.801-2.987,3.801"/>
		<line fill="none" stroke="#ffffff" x1="217.789" y1="76.402" x2="202.047" y2="76.949"/>
	</g>
</g>
<g>
	<path fill="none" stroke="#ffffff" d="M166.573,117.257c0,0-60.584-8.768-152.257,3.393"/>
	<g>
		<path fill="none" stroke="#ffffff" d="M111.722,70.754c0,0-4.799,12.346-31.121,30.874c-1.159,0.816-33.29,3.803-33.29,3.803
			s8.25-8.69,12.363-19.147l53.527-19.768l15.362,15.619l-3.382,0.697"/>
		<polyline fill="none" stroke="#ffffff" points="122.804,112.597 123.206,83.676 112.725,70.982 		"/>
		<line fill="none" stroke="#ffffff" x1="85.296" y1="101.099" x2="87.539" y2="114.959"/>
		<line fill="none" stroke="#ffffff" x1="52.352" y1="106.575" x2="54.532" y2="115.338"/>
		<polyline fill="none" stroke="#ffffff" points="117.153,113.3 116.771,88.498 101.587,89.004 		"/>
		<line fill="none" stroke="#ffffff" x1="96.265" y1="97.089" x2="96.97" y2="111.086"/>
		<polyline fill="none" stroke="#ffffff" points="115.244,111.512 114.097,90.358 98.407,90.533 		"/>
		<path fill="none" stroke="#ffffff" d="M103.188,75.569c0,0-12.076,15.593-22.354,22.954"/>
		<path fill="none" stroke="#ffffff" d="M92.813,80.33c0,0-4.979,9.764-15.834,18.551"/>
		<path fill="none" stroke="#ffffff" d="M85.022,82.809c0,0-5.73,10.353-10.731,15.754"/>
		<path fill="none" stroke="#ffffff" d="M113.688,77.774c0,0,2.269,0.407,1.863,2.676c-0.408,2.265-0.986,3.696-2.835,3.203
			c-1.848-0.494-2.613-2.081-2.12-3.93C111.088,77.874,113.688,77.774,113.688,77.774z"/>
		<path fill="none" stroke="#ffffff" d="M125.079,88.533c0,0,5.484,5.419,18.821,4.419"/>
		<line fill="none" stroke="#ffffff" x1="140.819" y1="97.084" x2="139.324" y2="115.201"/>
		<polyline fill="none" stroke="#ffffff" points="135.594,115.058 136.627,100.645 129.911,99.847 129.283,113.142 		"/>
	</g>
	<path fill="none" stroke="#ffffff" d="M65.044,83.949c-3.312-0.663-3.795,0.851-6.114-0.253C56.609,82.591,56.66,78,56.66,78
		l4.795-4.22c0,0,3.526-0.16,1.978-1.917c-1.548-1.758-1.752-3.407-1.924-4.777c-0.17-1.372,1.874-2.743,5.437-2.627
		c3.562,0.115,2.718-0.453,3.019-1.605c0.3-1.151,2.325-1.322,4.267-0.414c3.573,1.667,1.552,1.695,2.99,1.741
		c2.374,0.078,3.211-1.361,5.003-1.622c5.338-0.78,3.5-1.295,4.715,1.339c1.215,2.639-1.593,3.167-0.173,3.111
		c0.851-0.036,4.128-2.464,5.711-0.435c1.582,2.036,1.194,3.919,1.194,3.919s2.128,0.479,2.241,1.392"/>
	<path fill="none" stroke="#ffffff" d="M140.109,113.271c0,0,0.94-1.107,0.819-2.082c-0.121-0.972,2.979,0.125,3.831,1.008
		c0.851,0.88,0.304-1.523,0.884-2.828c0.578-1.309,2.645-0.576,3.587,1.034c0.942,1.616-0.393-3.164,1.553-3.404
		c1.947-0.242,1.945,1.734,3.465,2.038c1.521,0.305-0.853,3.071-0.853,3.071s1.917-2.462,3.284-1.395
		c1.369,1.065,1.765,0.276,2.706,1.885c0.942,1.612-0.913,2.585-0.913,2.585l-3.892,0.483"/>
	<path fill="none" stroke="#ffffff" d="M70.182,128.359c0,0-30.067,1.017-57.383,10.88"/>
	<path fill="none" stroke="#ffffff" d="M15.424,138.176c0,0-1.108-2.516-1.754-3.689c-0.648-1.173,3.843-1.354,5.369-0.668
		c1.524,0.69-0.386-2.081-0.315-4.031c0.074-1.954,3.062-2.072,5.076-0.507c2.011,1.568-2.102-3.81,0.241-5.104
		c2.349-1.294,3.348,1.215,5.431,0.829c2.083-0.383,0.475,4.327,0.475,4.327s1.183-4.095,3.458-3.437
		c2.276,0.657,2.376-0.547,4.388,1.021c2.012,1.567,0.152,3.74,0.152,3.74l-4.691,2.589"/>
	<path fill="none" stroke="#ffffff" d="M50.859,100.313c0,0-3.266-6.933-7.044-4.4c-3.779,2.531-1.033,5.621-1.033,5.621
		s-3.464-2.71-5.25-2.834c-1.788-0.123-3.013-3.214-5.103,0.831c-2.095,4.042-1.291,4.42-0.408,5.555
		c0.885,1.135,2.22,1.766,1.667,3.657c-0.552,1.896-0.414-3.785-3.105-2.897c-2.689,0.888-4.007-1.888-5.104,0.828
		c-1.099,2.716,0.423,2.714-0.13,4.611c-0.554,1.895-4.211,0.89-4.211,0.89s-6.182,1.399-6.016,2.916
		c0.164,1.517-1.015,3.473-1.015,3.473"/>
	<path fill="none" stroke="#ffffff" d="M112.861,117.48c0,0,9.402,6.424,21.239,7.989"/>
	<path fill="none" stroke="#ffffff" d="M100.339,118.535c0,0,15.772,8.131,5.912,10.906c-16.138,4.538-33.587,14.804-33.587,14.804"
		/>
</g>
<g>
	<g>
		<path fill="none" stroke="#ffffff" stroke-width="1.5" d="M482.486,113.441c0,0,32.005-8.056,81.469-6.564
			c82.302,2.482,91.343,7.513,91.343,7.513"/>
		<g>
			<path fill="none" stroke="#ffffff" stroke-width="1.5" d="M497.316,58.479c0,0,5.152,29.581,5.212,50.536"/>
			<path fill="none" stroke="#ffffff" stroke-width="1.5" d="M542.764,67.001c0,0-3.878,22.046-2.948,36.824"/>
			<path fill="none" stroke="#ffffff" stroke-width="1.5" d="M489.485,57.436c0,0,18.8-14.941,30.328-35.882
				c0,0,3.609,15.084,27.834,38.2l10.65,1.354"/>
			<path fill="none" stroke="#ffffff" stroke-width="1.5" d="M559.2,72.672c0,0-0.203,21.714-1.595,33.751"/>
			<polygon fill="none" stroke="#ffffff" points="520.404,49.532 520.585,56.246 527.083,56.055 527.325,49.362 			"/>
			<polygon fill="none" stroke="#ffffff" points="518.166,56.468 511.764,56.871 511.156,50.356 518.092,49.766 			"/>
			<polygon fill="none" stroke="#ffffff" points="511.996,59.081 518.302,58.571 518.409,64.335 512.63,64.863 			"/>
			<polygon fill="none" stroke="#ffffff" points="520.712,58.448 526.797,58.247 526.591,64 520.714,64.313 			"/>
			<path fill="none" stroke="#ffffff" d="M506.263,68.185c0,0,16.481-2.976,29.243-1.711"/>
			<path fill="none" stroke="#ffffff" d="M507.457,69.936c0,0,13.307-2.525,25.929-1.912"/>
			<path fill="none" stroke="#ffffff" stroke-width="1.5" d="M523.852,24.614c0,0,11.1,5.868,20.141,8.015"/>
			<path fill="none" stroke="#ffffff" d="M545.359,35.232c0,0,4.63,9.385,13.808,17.982"/>
			<polygon fill="none" stroke="#ffffff" points="521.646,76.086 521.823,82.8 528.325,82.609 528.566,75.915 			"/>
			<polygon fill="none" stroke="#ffffff" points="519.405,83.023 513.001,83.425 512.396,76.909 519.332,76.317 			"/>
			<polygon fill="none" stroke="#ffffff" points="513.236,85.632 519.54,85.123 519.648,90.889 513.87,91.416 			"/>
			<polygon fill="none" stroke="#ffffff" points="521.953,85.001 528.038,84.798 527.831,90.554 521.955,90.867 			"/>
			<path fill="none" stroke="#ffffff" d="M508.97,94.51c12.367-2.35,12.379-2.573,25.93-1.914"/>
			<path fill="none" stroke="#ffffff" d="M507.83,96.942c0,0,12.216-3.609,25.874-2.092"/>
			<path fill="none" stroke="#ffffff" d="M547.155,36.026c0,0,8.336,3.596,10.786,4.397c1.181,0.387,10.904-9.097,10.904-9.097
				s1.79,7.218,5.011,12.947"/>
			<line fill="none" stroke="#ffffff" x1="563.424" y1="33.325" x2="557.279" y2="38.573"/>
			<line fill="none" stroke="#ffffff" x1="558.769" y1="34.252" x2="554.879" y2="37.639"/>
			<line fill="none" stroke="#ffffff" x1="555.239" y1="34.367" x2="552.352" y2="36.941"/>
			<path fill="none" stroke="#ffffff" stroke-width="1.5" d="M570.731,56.302c0,0-7.158,9.715-14.271,11.406
				c-4.347,1.034,7.937,2.472,20.933,6.343c1.919,0.572,14.357-9.55,20.375-18.971c0.741-1.159-11.832,4.441-24.142,1.812"/>
			<path fill="none" stroke="#ffffff" d="M598.669,57.058c0,0,2.213,12.967,9.665,22.231"/>
			<path fill="none" stroke="#ffffff" stroke-width="1.5" d="M579.044,76.292c0,0,1.325,15.524-1.424,28.613"/>
			<path fill="none" stroke="#ffffff" stroke-width="1.5" d="M605.03,80.245c0,0-4.447,17.92-5.502,27.126"/>
			<path fill="none" stroke="#ffffff" d="M549.867,34.4c0,0,10.695,0.136,15.64-2.119"/>
			<path fill="none" stroke="#ffffff" d="M547.066,71.994l-1.798,23.041l5.57,0.687c0.244-6.804,2.456-21.074,2.491-22.044
				c0.036-0.972-7.921-2.958-7.921-2.958"/>
			<path fill="none" stroke="#ffffff" d="M543.733,97.167c0,0,5.839-0.034,7.523,0.511"/>
			<path fill="none" stroke="#ffffff" d="M550.164,73.805c0,0-1.979,14.522-1.711,20.613"/>
			<path fill="none" stroke="#ffffff" d="M547.43,75.411c0,0,4.356,0.645,4.814,1.389"/>
			<path fill="none" stroke="#ffffff" d="M546.372,91.425c0,0,3.61,1.103,4.336,1.127"/>
			<path fill="none" stroke="#ffffff" d="M566.283,76.987l-1.624,21.465c0,0,3.232,0.002,5.573,0.625
				c0.964,0.253,2.3-19.636,2.327-20.541c0.026-0.905-7.943-2.732-7.943-2.732"/>
			<path fill="none" stroke="#ffffff" d="M569.387,78.868c0,0-0.689,15.053-1.521,18.433"/>
			<path fill="none" stroke="#ffffff" d="M566.664,80.487c0,0,4.355,0.618,4.82,1.364"/>
			<path fill="none" stroke="#ffffff" d="M565.751,94.805c0,0,3.614,1.083,4.341,1.106"/>
			<path fill="none" stroke="#ffffff" d="M563.106,100.353c0,0,6.473-0.167,8.157,0.379"/>
			<path fill="none" stroke="#ffffff" d="M563.296,73.226c0,0,6.45,1.518,9.073,3.398"/>
			<path fill="none" stroke="#ffffff" d="M595.544,107.94c0.444-5.58,3.585-22.9,3.585-22.9l-14.018-1.759
				c0,0-0.759,18.399-3.036,23.901"/>
			<path fill="none" stroke="#ffffff" d="M592.198,88.439c0,0-2.913,14.865-3.293,18.742"/>
			<path fill="none" stroke="#ffffff" d="M591.843,98.4c0.149,0.083,0.504,0.005,0.692,0.061c-0.002,0.369,0.09,0.781-0.04,1.147
				c-0.783,0.123-0.423-0.34-0.668-0.723"/>
			<path fill="none" stroke="#ffffff" d="M588.183,98.756c-0.03-0.387,0.019-0.807,0.08-1.177c0.377,0.001,0.764-0.072,1.139,0.042
				c0.026,0.295-0.046,0.616-0.031,0.897c-0.509,0.173-0.696-0.173-0.927-0.24"/>
			<path fill="none" stroke="#ffffff" d="M587.76,76.608l12.828,1.674c0,0,0.14-7.354-5.423-8.282
				c-5.559-0.927-7.398,3.793-7.398,3.793"/>
			<polyline fill="none" stroke="#ffffff" points="598.532,74.562 594.334,76.357 595.939,72.279 			"/>
			<polyline fill="none" stroke="#ffffff" points="592.044,72.385 593.837,76.451 589.536,74.483 			"/>
			<path fill="none" stroke="#ffffff" d="M591.548,58.992c0,0-8.586,8.934-14.331,13.106"/>
			<path fill="none" stroke="#ffffff" d="M587.132,60.048c0,0-9.065,8.673-13.038,10.966"/>
			<path fill="none" stroke="#ffffff" d="M582.988,60.388c0,0-7.314,7.278-11.773,9.552"/>
			<path fill="none" stroke="#ffffff" d="M525.969,29.41c0,0,10.799,17.654,23.066,28.306"/>
			<path fill="none" stroke="#ffffff" d="M530.758,31.528c0,0,8.706,14.901,21.182,26.535"/>
			<path fill="none" stroke="#ffffff" d="M580.748,74.933c0,0,12.71-9.105,16.125-14.228c0,0,4.206,14.1,8.915,18.401"/>
			<line fill="none" stroke="#ffffff" x1="586.439" y1="78.347" x2="599.528" y2="79.676"/>
			<polygon fill="none" stroke="#ffffff" points="567.011,43.392 566.637,47.784 571.063,48.172 571.717,43.824 			"/>
			<polygon fill="none" stroke="#ffffff" points="564.755,47.245 560.378,47.004 560.45,42.705 565.2,42.866 			"/>
			<polygon fill="none" stroke="#ffffff" points="560.358,48.948 564.675,49.114 564.321,52.88 560.362,52.771 			"/>
			<polygon fill="none" stroke="#ffffff" points="566.564,49.23 570.706,49.577 570.141,53.314 566.13,53.059 			"/>
			<path fill="none" stroke="#ffffff" d="M491.401,58.429c0,0,1.707-0.378,4.198-2.618c2.823-2.54,9.247-7.512,13.824-12.936
				c5.122-6.071,9.485-12.9,9.485-12.9s6.699,10.771,19.084,23.699c2.92,3.048,8.231,7.601,8.231,7.601"/>
			<path fill="none" stroke="#ffffff" d="M584.542,106.232c2.655-7.207,3.035-20.107,3.035-20.107l9.105,1.327
				c0,0-2.225,10.706-3.225,18.211"/>
		</g>
		<path fill="none" stroke="#ffffff" stroke-width="1.5" d="M584.922,109.837c0,0,3.729,0.247,3.561,4.965
			c-0.169,4.721-4.913,6.423-17.789,8.219c-12.235,1.708-19.633,2.845-29.023,6.26c-10.343,3.761-17.357,10.528-10.528,14.796"/>
		<path fill="none" stroke="#ffffff" stroke-width="1.5" d="M593.458,110.785c0,0,7.35,1.904,10.084,4.664
			c1.582,1.596,7.801,6.601-5.532,10.702c-7.398,2.276-15.081,3.699-18.211,5.976c-5.683,4.134,7.386,10.935,8.252,15.081"/>
		<path fill="none" stroke="#ffffff" d="M500.483,82.493c-3.306-2.794-5.301,0.864-5.301,0.864
			c-7.778-4.654-7.603,4.104-7.603,4.104s0.327-0.738-1.699-0.483c-9.676,1.215-4.64,9.988-4.64,9.988s-2.082-1.09-3.879-0.3
			c-8.896,3.896-0.382,10.687-0.382,10.687s-4.271,0.08-5.521,0.928c-1.13,0.769-2.471,0.871-1.776,5.351"/>
		<polyline fill="none" stroke="#ffffff" points="491.381,112.03 491.917,109.278 488.121,106.622 492.18,107.927 492.125,105.46 
			489.348,101.471 484.253,98.856 489.4,100.012 488.92,95.292 488.105,90.887 489.585,94.831 490.265,98.423 490.816,101.197 
			493.164,103.554 497.068,98.665 497.312,91.865 497.908,97.883 500.719,96.363 497.189,99.805 494.113,104.234 494.252,104.888 
			494.246,108.889 497.472,107.371 494.437,110.785 		"/>
		<path fill="none" stroke="#ffffff" d="M477.257,96.666c0,0-6.66,0.212-4.056-6.15c1.865-4.553,5.568-1.583,5.568-1.583
			s-1.87-3.512-0.125-5.517c2.873-3.302,5.462-0.858,5.462-0.858l0.789,0.593c0.035-0.969-1.429-7.669,6.94-5.911
			c0,0-0.669-4.2,4.397-5.113c3.753-0.676,3.738,1.998,3.738,1.998"/>
		<path fill="none" stroke="#ffffff" d="M600.666,102.629c0,0,0.481-3.946,3.628-2.462c1.675,0.791,0.642,2.457,0.642,2.457
			s3.783-3.756,5.882-1.25c2.099,2.511,1.31,4.181,1.31,4.181s1.913-2.547,4.179-1.31c3.341,1.821,2.023,4.694,2.023,4.694"/>
		<path fill="none" stroke="#ffffff" d="M621.722,110.406c0,0,5.698,0.173,3.709-4.641c-1.425-3.448-4.958-1.489-4.958-1.489
			s1.905-2.465,0.439-4.037c-2.411-2.59-4.901-0.949-4.901-0.949l-0.751,0.391c0.024-0.713,1.742-5.54-5.947-4.744
			c0,0,0.854-3.037-3.688-4.005c-3.363-0.714-2.871,1.453-2.871,1.453"/>
		<path fill="none" stroke="#ffffff" d="M610.349,116.982c0,0,14.978-0.791,44.57,5.944"/>
		<path fill="none" stroke="#ffffff" d="M528.301,117.396c0,0,18.646-5.711,46.095-4.975"/>
	</g>
	<g>
		<polyline fill="none" stroke="#ffffff" points="609.283,94.52 611.009,89.727 611.646,86.027 611.402,81.895 611.816,77.98 
			612.441,72.109 612.42,68.628 609.968,62.558 605.051,54.054 611.51,62.979 614.096,54.923 609.977,45.422 614.3,52.096 
			618.417,42.722 615.399,52.304 614.976,55.134 613.691,60.792 612.842,65.365 615.083,69.053 617.438,62.727 618.189,55.333 
			618.307,60.767 624.993,57.553 618.317,63.157 616.172,71.432 616.186,73.605 615.995,78.607 615.591,84.263 616.055,88.608 
			615.644,92.958 618.213,98.834 		"/>
	</g>
	<path fill="none" stroke="#ffffff" d="M620.84,69.654c0,0,1.493,3.347,4.088,2.693c2.597-0.653,3.442,0.92,4.512-3.197
		c1.066-4.116-1.954-4.401-0.034-5.433c3.29-1.77,3.215,5.295,5.031,2.688c2.65-3.803,3.059-12.697,3.059-12.697l-5.469-5.853
		c0,0-3.619,0.471-2.281-2.704c1.341-3.176,1.324-5.892,1.31-8.155c-0.014-2.264-2.288-4.063-5.904-3.137
		c-3.617,0.93-2.837-0.171-3.3-1.977c-0.463-1.81-2.55-1.662-4.408,0.213c-3.417,3.456-1.35,3.078-2.814,3.451
		c-2.41,0.618-3.458-1.542-5.323-1.591c-5.551-0.153-3.749-1.369-4.626,3.161c-0.883,4.534,2.057,4.813,0.6,5.013
		c-0.874,0.12-4.548-3.141-5.884,0.487c-1.336,3.63-0.678,6.614-0.678,6.614s-2.111,1.218-2.1,2.725"/>
	<path fill="none" stroke="#ffffff" d="M610.815,68.673c0,0-0.569,2.845-1.992,2.845s-3.699-0.853-3.699-1.707
		s-1.422-1.138-1.422-1.138"/>
</g>
<path fill="none" stroke="#ffffff" d="M53.394,102.06c0,0,4.174-4.173,6.45-9.105"/>
<polyline fill="none" stroke="#ffffff" points="62.878,114.959 62.12,108.509 57.188,108.889 58.326,114.959 "/>
<polyline fill="none" stroke="#ffffff" points="72.743,113.062 71.984,107.751 78.054,107.371 79.192,113.821 "/>
<g>
	<path fill="none" stroke="#ffffff" stroke-width="1.5" d="M310.621,115.338c0,0,92.614,0.718,166.497,23.588"/>
	<path fill="none" stroke="#ffffff" stroke-width="1.5" d="M332.793,77.02l25.042-22.678c22.79,6.363,50.305,3.416,50.305,3.416
		l-27.688,32C380.452,89.758,351.423,85.436,332.793,77.02z"/>
	<polyline fill="none" stroke="#ffffff" points="409.168,59.837 436.484,90.095 431.64,90.411 	"/>
	<path fill="none" stroke="#ffffff" stroke-width="1.5" d="M407.068,63.977l22.147,27.115c0,0-4.492,21.97-3.922,34.205"/>
	<path fill="none" stroke="#ffffff" stroke-width="1.5" d="M377.773,92.005c0,0,2.69,18.522,1.203,26.902"/>
	<path fill="none" stroke="#ffffff" stroke-width="1.5" d="M334.808,79.77c0,0,3.415,17.926,3.13,35.853"/>
	<polygon fill="none" stroke="#ffffff" points="391.179,100.024 390.898,116.369 394.962,116.097 395.248,99.557 	"/>
	<polygon fill="none" stroke="#ffffff" points="412.675,98.843 412.317,115.878 415.756,115.238 416.11,98.36 	"/>
	<polyline fill="none" stroke="#ffffff" points="349.741,61.565 349.222,48.586 352.357,44.972 359.103,45.011 359.567,54.352 	"/>
	<line fill="none" stroke="#ffffff" x1="352.173" y1="47.047" x2="352.582" y2="59.01"/>
	<path fill="none" stroke="#ffffff" d="M403.563,78.049c0,0-2.605,2.059-2.614,3.614c-0.009,1.559,1.543,3.808,3.091,3.653
		c3.123-0.315,3.65-3.092,3.65-3.092S408.235,78.078,403.563,78.049z"/>
	<polygon fill="none" stroke="#ffffff" points="397.207,99.759 403.278,99.272 403.199,106.884 397.123,107.371 	"/>
	<polygon fill="none" stroke="#ffffff" points="405.01,99.33 411.082,98.843 411.011,106.11 404.939,106.593 	"/>
	<polygon fill="none" stroke="#ffffff" points="397.245,108.936 403.317,108.449 403.235,116.056 397.172,116.198 	"/>
	<polygon fill="none" stroke="#ffffff" points="405.059,108.157 411.133,107.668 411.05,115.281 404.975,115.769 	"/>
	<polyline fill="none" stroke="#ffffff" points="361.839,117.045 361.555,97.412 372.083,99.119 372.367,119.037 	"/>
	<polyline fill="none" stroke="#ffffff" points="359.563,117.33 359.278,93.713 373.79,96.273 375.045,117.504 	"/>
	<polygon fill="none" stroke="#ffffff" points="364.063,103.14 364.034,107.754 370.256,108.48 370.052,104.101 	"/>
	<polygon fill="none" stroke="#ffffff" points="354.12,98.071 348.871,97.274 348.903,103.851 354.15,104.654 	"/>
	<polygon fill="none" stroke="#ffffff" points="347.377,96.965 342.131,95.818 342.153,102.449 347.401,103.248 	"/>
	<polygon fill="none" stroke="#ffffff" points="354.036,106.35 348.787,105.548 348.821,111.443 354.06,112.291 	"/>
	<polygon fill="none" stroke="#ffffff" points="347.283,105.292 342.039,104.143 342.07,110.383 347.315,111.526 	"/>
	<path fill="none" stroke="#ffffff" d="M400.708,61.249c0,0-19.507,22.482-22.522,25.691"/>
	<path fill="none" stroke="#ffffff" d="M392.15,65.578c0,0-12.313,14.685-17.417,19.958"/>
	<path fill="none" stroke="#ffffff" d="M385.214,67.96c0,0-8.828,11.247-13.933,16.521"/>
	<path fill="none" stroke="#ffffff" d="M376.891,71.711c0,0-4.417,6.2-9.523,11.476"/>
	<path fill="none" stroke="#ffffff" d="M357.949,58.111c0,0-15.653,14.434-20.52,18.557"/>
	<path fill="none" stroke="#ffffff" d="M358.615,62.265c0,0-11.479,11.001-15.304,14.091"/>
	<path fill="none" stroke="#ffffff" d="M361.372,64.011c0,0-8.008,8.603-11.48,11.001"/>
	<g>
		<polyline fill="none" stroke="#ffffff" points="329.72,105.254 328.013,95.418 327.382,90.271 327.637,84.521 327.231,79.073 
			326.621,70.899 326.65,66.054 329.116,57.601 334.054,45.753 327.574,58.192 325.006,46.981 329.147,33.747 324.809,43.046 
			320.713,30.01 323.709,43.339 324.125,47.277 325.397,55.151 326.235,61.513 324.701,66.096 322.424,56.99 320.913,47.562 
			320.782,55.125 314.103,50.671 320.765,58.454 322.891,69.965 322.872,72.992 323.052,79.953 323.442,87.822 322.968,93.877 
			323.37,99.928 320.69,109.441 		"/>
	</g>
	<path fill="none" stroke="#ffffff" d="M316.203,58.186c0,0-1.491,3.348-4.088,2.694c-2.598-0.653-3.441,0.919-4.51-3.196
		c-1.067-4.118,1.953-4.402,0.032-5.435c-3.289-1.769-2.814,4.965-5.031,2.689c-2.213-2.279-3.059-12.696-3.059-12.696l5.47-5.853
		c0,0,3.619,0.47,2.279-2.706c-1.339-3.174-1.323-5.891-1.31-8.155c0.015-2.264,2.289-4.063,5.904-3.135
		c3.617,0.928,2.836-0.171,3.3-1.979c0.464-1.81,2.551-1.662,4.408,0.213c3.417,3.456,1.351,3.078,2.815,3.452
		c2.41,0.617,3.457-1.542,5.322-1.591c5.552-0.155,3.749-1.37,4.627,3.159c0.882,4.534-2.058,4.814-0.6,5.014
		c0.874,0.12,4.548-3.142,5.884,0.487c1.336,3.63,0.678,6.612,0.678,6.612s2.11,1.218,2.099,2.727c0,0-0.827,3.068-2.534,3.068
		c-1.708,0,2.561,0,2.561,2.276s-1.707,3.415-1.707,3.415"/>
	<path fill="none" stroke="#ffffff" stroke-width="1.5" d="M361.979,119.445c0,0,3.911,2.435-4.563,6.007
		c-8.473,3.57-25.738,3.259-32.476,5.617c-6.078,2.126-13.946,9.158-4.929,15.854"/>
	<path fill="none" stroke="#ffffff" stroke-width="1.5" d="M371.331,120.706c0,0,7.563,4.428,8.434,8.005
		c0.709,2.914,0,4.268-7.683,8.536c-3.693,2.052-6.829,2.561-5.691,4.837c2.389,4.778,17.596,6.009,31.3,5.406"/>
	<path fill="none" stroke="#ffffff" d="M428.261,111.619c0,0,0.401-5.775,4.054-3.914c3.653,1.867,1.518,4.925,1.518,4.925
		s2.814-2.794,4.403-3.092c1.587-0.298,2.357-3.197,4.656,0.202c2.304,3.395,1.625,3.821,0.953,4.929
		c-0.671,1.111-1.8,1.814-1.104,3.454c0.693,1.638-0.033-3.434,2.47-2.924c2.504,0.508,3.39-2.115,4.659,0.199
		c1.267,2.319-0.095,2.476,0.603,4.113c0.694,1.638,3.862,0.355,3.862,0.355s5.684,0.592,5.699,1.97
		c0.01,1.371,1.275,3.001,1.275,3.001s0.839,2.019,2.126,1.769c1.283-0.249,3.089-1.265,4.112-0.231
		c1.022,1.031-0.274,2.823-0.274,2.823s0.765,0.775,2.048,0.783c1.286,0.009,1.806-1.016,2.832-1.009
		c1.028,0.004,1.795,0.781,1.791,1.551c-0.005,0.771-0.273,2.563,1.527,2.577c0,0,2.718-1.36,3.048,0.697
		c0.327,2.057-0.009,1.37,1.705,1.038c1.714-0.333,3.115,3.552,3.115,3.552"/>
	<path fill="none" stroke="#ffffff" d="M452.608,144.077c0,0,37.276-4.837,56.909-3.13"/>
	<path fill="none" stroke="#ffffff" d="M333.427,51.702c0,0,0.379-3.794,2.655-2.655c2.276,1.138,3.416,2.655,3.794,3.794
		c0.379,1.138,2.276-1.897,3.415-0.76c1.138,1.139,1.896,3.416,1.896,4.933s-1.896,3.793-1.518,4.932
		c0.379,1.138-0.758,3.034-2.655,3.793c-1.897,0.759-3.291-4.465-4.933-2.276c-2.276,3.035-6.07,1.519-6.07,1.519l-0.379-4.933"/>
</g>
</svg>
